<mxfile host="app.diagrams.net" modified="2024-08-29T10:41:43.524Z" agent="Mozilla/5.0 (Windows NT 10.0; Win64; x64; rv:127.0) Gecko/20100101 Firefox/127.0" version="24.5.3" etag="suQIT9y4BBDQWNmLInKq" type="github">
  <diagram name="第 1 页" id="mmoCL4apKrU7NbMv-WPE">
    <mxGraphModel>
      <root>
        <mxCell id="0" />
        <mxCell id="1" parent="0" />
      </root>
    </mxGraphModel>
  </diagram>
</mxfile>
